<?xml version="1.0" standalone="no"?>
<!DOCTYPE svg PUBLIC "-//W3C//DTD SVG 20010904//EN"
 "http://www.w3.org/TR/2001/REC-SVG-20010904/DTD/svg10.dtd">
<svg version="1.0" xmlns="http://www.w3.org/2000/svg"
 width="700.000000pt" height="700.000000pt" viewBox="0 0 700.000000 700.000000"
 preserveAspectRatio="xMidYMid meet">
<metadata>
Created by potrace 1.11, written by Peter Selinger 2001-2013
</metadata>
<g transform="translate(0.000000,700.000000) scale(0.100000,-0.100000)"
fill="#000000" stroke="none">
<path d="M5230 6848 c-149 -99 -435 -428 -640 -736 -63 -95 -48 -92 -205 -43
-337 106 -623 150 -976 151 -362 0 -514 -27 -909 -166 -10 -3 -33 20 -72 73
-138 191 -348 415 -483 516 -85 63 -225 137 -260 137 -33 0 -62 -38 -101 -131
-94 -226 -190 -620 -241 -991 -11 -85 -17 -198 -17 -368 -1 -234 -2 -247 -23
-282 -47 -80 -163 -369 -210 -523 -35 -116 -63 -293 -63 -399 0 -75 -6 -114
-34 -211 -92 -320 -122 -462 -157 -755 -23 -192 -37 -689 -21 -770 8 -44 8
-43 21 55 24 185 75 396 116 480 14 27 15 10 10 -186 -3 -119 -2 -274 1 -344
7 -116 10 -131 30 -152 13 -13 34 -23 47 -23 13 0 31 -6 41 -13 35 -26 34
-355 -5 -1222 -11 -249 -12 -251 -59 -440 -27 -104 -60 -251 -75 -325 -14 -74
-28 -145 -31 -157 l-4 -23 703 0 704 0 63 73 c100 113 95 107 79 107 -8 0 -51
-38 -96 -86 -46 -47 -83 -80 -83 -72 2 83 50 151 163 230 31 23 55 43 53 46
-10 9 -94 -40 -136 -78 -24 -22 -45 -38 -47 -36 -9 9 48 218 71 263 55 109
265 361 324 389 27 13 39 13 61 4 63 -26 221 -220 221 -271 0 -10 -47 -51
-117 -102 l-118 -85 -42 35 c-38 31 -43 40 -43 77 0 53 33 173 65 237 29 56
18 65 -19 16 -50 -65 -97 -247 -77 -299 6 -15 23 -34 40 -42 48 -25 53 -103
10 -155 -11 -13 -43 -32 -72 -41 -45 -14 -55 -22 -74 -60 -27 -52 -33 -150 -9
-150 9 0 16 19 20 58 9 78 24 104 72 122 23 8 49 22 59 30 29 24 65 88 65 115
0 18 11 32 43 51 23 15 78 55 122 90 140 108 318 211 435 249 82 28 173 25
236 -8 28 -14 63 -40 77 -57 19 -23 34 -30 60 -30 45 0 75 -25 126 -104 51
-78 77 -143 91 -230 11 -71 5 -116 -15 -116 -17 0 -70 63 -109 130 -17 30 -38
55 -46 55 -8 0 -24 -17 -35 -37 -11 -21 -25 -38 -30 -38 -6 0 -25 22 -43 49
-29 46 -60 130 -94 256 -16 58 -32 62 -36 8 -7 -99 -24 -171 -54 -230 -18 -35
-37 -62 -42 -60 -13 4 -33 71 -46 150 -7 46 -6 68 7 108 12 37 13 53 5 61 -8
8 -14 3 -24 -18 -6 -16 -13 -31 -15 -33 -1 -2 -14 4 -27 13 -39 25 -43 -1 -7
-38 69 -71 30 -170 -148 -381 -55 -64 -67 -83 -43 -66 59 42 131 122 180 202
l49 79 22 -60 c37 -101 57 -93 130 55 l39 80 26 -59 c15 -33 42 -78 61 -101
l34 -42 -56 -64 c-31 -35 -84 -92 -117 -127 l-60 -62 1363 0 1364 0 -7 183
c-4 100 -10 197 -13 214 -3 18 -1 33 4 33 11 0 133 -250 178 -363 l27 -67 94
0 c57 0 94 4 94 10 0 25 -52 246 -84 355 -19 66 -86 257 -149 425 -243 646
-268 777 -250 1335 l8 270 48 35 48 35 -6 240 c-11 426 -29 667 -71 950 -30
206 -96 506 -143 655 -12 36 -37 142 -56 235 -18 94 -46 206 -60 250 -30 89
-110 263 -155 337 -16 26 -32 65 -35 85 -3 21 -10 178 -15 349 -20 616 -63
891 -175 1114 -49 98 -129 210 -149 210 -7 0 -42 -19 -76 -42z m-1735 -1657
c50 -220 107 -684 131 -1063 4 -59 10 -105 14 -103 10 6 30 -50 30 -84 0 -36
-17 -51 -57 -51 -76 0 -111 50 -97 142 8 49 -7 43 -25 -11 -25 -77 -4 -131 63
-156 57 -22 110 -14 132 21 21 32 13 98 -15 128 l-20 22 24 73 c14 40 28 91
31 113 4 21 10 36 14 31 6 -6 30 -205 30 -249 0 -7 78 -13 218 -18 119 -3 229
-9 244 -12 26 -6 20 -11 -80 -78 -59 -40 -131 -89 -161 -109 -60 -42 -87 -46
-124 -17 -30 24 -67 26 -67 5 0 -20 77 -75 105 -75 13 0 47 17 76 37 163 112
334 223 345 223 7 0 24 11 38 25 30 30 46 32 46 6 0 -17 12 -19 138 -25 177
-9 418 -40 557 -71 60 -14 114 -25 118 -25 5 0 6 18 3 40 -4 28 -2 40 7 40 15
0 118 -67 130 -84 4 -6 6 -240 3 -521 -4 -537 -11 -627 -58 -830 -23 -99 -46
-164 -84 -239 -14 -26 -23 -50 -21 -52 3 -3 39 32 82 78 l78 83 -7 -50 c-12
-81 -36 -165 -62 -218 -14 -27 -23 -52 -19 -55 3 -4 63 8 133 26 70 18 138 35
152 38 22 5 19 0 -21 -39 -48 -48 -104 -67 -193 -67 -44 0 -44 0 -129 -108
-91 -115 -243 -268 -344 -345 -223 -171 -589 -337 -831 -377 -40 -7 -71 -14
-68 -17 6 -7 194 15 235 27 38 11 39 1 4 -40 -25 -30 -29 -31 -76 -25 l-49 7
-67 -71 c-57 -60 -69 -69 -85 -59 -10 6 -37 8 -63 4 -37 -5 -50 -1 -83 20 -63
42 -109 55 -146 39 -26 -11 -33 -10 -53 6 -26 21 -81 25 -99 7 -8 -8 -20 -5
-47 13 -19 13 -35 26 -35 29 0 3 44 4 97 2 144 -5 107 14 -62 33 -217 23 -574
116 -895 232 -265 96 -406 193 -529 366 l-53 74 -87 5 c-80 5 -141 22 -141 38
0 4 50 5 112 2 l111 -5 -32 54 c-58 98 -149 314 -137 327 3 2 32 -20 64 -49
72 -67 197 -169 206 -169 4 0 -13 28 -37 62 -24 35 -69 106 -99 158 -110 189
-133 244 -197 486 -87 328 -91 352 -98 584 l-5 205 56 28 c57 27 106 35 106
17 0 -5 15 -10 34 -10 23 0 109 37 267 115 144 70 246 115 265 115 35 0 173
-38 423 -116 96 -30 182 -54 192 -54 19 0 136 117 157 156 7 13 10 29 7 34
-12 20 -35 9 -67 -31 -18 -23 -50 -60 -70 -83 l-37 -41 -173 57 c-95 31 -226
71 -290 89 l-118 32 1 196 c1 211 11 344 21 301 4 -14 15 -120 26 -236 11
-116 25 -221 31 -233 16 -28 42 -27 160 8 125 38 311 75 471 97 69 9 131 18
138 20 9 2 12 37 12 128 0 68 3 132 6 140 4 11 17 -14 34 -66 16 -46 39 -108
52 -138 l24 -55 1 285 c2 311 13 500 44 715 19 133 53 312 66 345 7 18 14 -4
48 -159z m859 -1009 c32 -132 32 -136 2 -150 -23 -10 -23 -10 -30 65 -7 86 -8
193 -2 193 2 0 16 -49 30 -108z m-94 -3005 c0 -17 -11 -53 -25 -79 -14 -26
-28 -68 -32 -93 -6 -51 -14 -55 -36 -22 -8 12 -29 37 -47 56 -26 27 -37 32
-61 27 -35 -7 -37 3 -5 33 20 19 31 22 68 16 41 -6 47 -4 76 26 17 18 34 41
38 51 9 29 24 21 24 -15z m-879 -86 c74 -47 77 -48 102 -33 36 22 66 6 115
-61 22 -29 55 -66 73 -81 29 -24 40 -28 81 -24 26 3 48 2 48 -1 0 -3 -3 -16
-6 -29 -9 -33 -33 -25 -199 68 -77 43 -186 100 -242 126 -90 41 -103 50 -103
72 0 21 3 23 28 18 15 -4 61 -29 103 -55z m839 -253 c0 -27 -4 -48 -9 -46 -11
4 -111 97 -111 103 0 8 96 10 108 1 7 -5 12 -30 12 -58z m-172 -37 c40 -55 72
-102 72 -105 0 -15 -37 -2 -124 41 -98 49 -106 57 -106 120 0 28 3 32 33 36
17 2 37 5 42 5 6 1 43 -43 83 -97z m-62 -379 c21 -16 56 -47 77 -70 60 -68 42
-125 -27 -82 -44 27 -60 48 -78 100 -8 25 -19 53 -23 63 -10 25 6 21 51 -11z"/>
<path d="M4330 3852 c-30 -10 -71 -27 -90 -36 -36 -19 -180 -125 -180 -133 0
-5 16 4 55 33 17 12 41 27 54 34 23 12 23 11 -7 -41 -31 -55 -86 -204 -80
-219 2 -5 30 27 63 72 72 96 146 168 203 197 169 86 461 8 665 -178 66 -61
116 -144 149 -251 30 -99 30 -262 -1 -360 -15 -51 -17 -61 -5 -45 55 71 77
175 72 353 -1 78 0 142 3 142 4 0 12 -7 19 -15 7 -9 15 -13 17 -11 7 7 -67
136 -100 173 -40 45 -30 50 23 12 l43 -31 -23 31 c-27 39 -124 121 -183 155
-173 102 -553 166 -697 118z"/>
<path d="M3167 3764 c-32 -17 -53 -62 -38 -77 23 -23 96 48 84 81 -6 15 -11
15 -46 -4z"/>
<path d="M3642 3751 c-18 -11 -1 -53 34 -80 61 -48 75 -6 16 52 -24 23 -42 33
-50 28z"/>
<path d="M2326 3624 c-146 -29 -364 -121 -436 -184 l-35 -31 72 36 c40 19 78
35 84 35 6 0 -24 -37 -67 -83 -91 -96 -146 -184 -175 -278 l-20 -66 45 -104
c24 -57 60 -132 80 -167 36 -65 118 -176 138 -188 13 -9 9 0 -45 79 -57 85
-85 152 -98 236 -24 157 12 269 127 390 175 186 347 270 529 258 147 -10 279
-71 413 -191 28 -26 52 -44 52 -39 0 21 -62 113 -99 146 -48 43 -39 46 44 12
57 -23 59 -23 35 -3 -45 38 -203 106 -305 132 -114 29 -227 33 -339 10z"/>
<path d="M4373 3615 c-45 -23 -182 -134 -191 -155 -1 -4 11 -10 28 -13 19 -4
34 -16 42 -32 16 -37 -13 -72 -93 -112 -50 -26 -58 -33 -38 -33 29 0 39 -19
39 -78 0 -18 7 -65 16 -105 43 -190 121 -276 265 -293 59 -7 164 14 202 41 26
18 23 19 -28 0 -53 -19 -159 -19 -223 0 -105 32 -170 123 -177 248 -3 40 -1
77 3 83 8 14 105 44 138 44 17 0 25 -9 34 -34 12 -37 47 -66 80 -66 26 0 63
37 56 56 -11 29 4 41 58 43 109 4 137 -33 140 -180 0 -48 4 -85 8 -83 4 3 17
34 28 70 68 222 -37 528 -205 598 -71 30 -125 30 -182 1z m281 -141 c7 -19 2
-18 -19 6 -16 17 -16 20 -3 15 9 -4 19 -13 22 -21z m-199 -164 c-27 -12 -43
-12 -25 0 8 5 22 9 30 9 10 0 8 -3 -5 -9z"/>
<path d="M2524 3456 c-22 -7 -64 -26 -93 -42 l-53 -28 48 -16 c42 -13 49 -19
52 -43 6 -55 -53 -108 -159 -144 -48 -16 -51 -18 -26 -21 22 -3 27 -7 22 -20
-14 -34 -17 -138 -6 -197 24 -128 111 -254 206 -300 73 -35 211 -17 285 36 42
31 58 63 18 37 -39 -25 -130 -55 -191 -63 -53 -6 -62 -4 -100 20 -77 51 -135
138 -144 219 -4 35 -1 45 24 68 35 33 160 99 160 84 0 -25 33 -87 49 -93 12
-4 25 3 41 21 25 29 31 66 11 67 -7 0 -4 4 7 9 28 12 103 12 146 0 35 -10 37
-13 49 -73 7 -34 16 -66 20 -70 15 -16 21 88 11 168 -25 196 -120 343 -248
381 -55 17 -75 17 -129 0z m36 -56 c0 -5 -2 -10 -4 -10 -3 0 -8 5 -11 10 -3 6
-1 10 4 10 6 0 11 -4 11 -10z m130 -10 c8 -5 11 -10 5 -10 -5 0 -17 5 -25 10
-8 5 -10 10 -5 10 6 0 17 -5 25 -10z"/>
<path d="M5162 2713 c-18 -7 -43 -59 -36 -76 14 -37 77 -28 94 13 22 53 -7 84
-58 63z"/>
<path d="M4010 2143 c-655 -85 -751 -100 -776 -124 -38 -35 -79 -98 -95 -144
-24 -72 -31 -63 -27 32 1 51 0 89 -5 84 -4 -4 -13 -46 -19 -94 -26 -195 41
-379 168 -458 42 -26 54 -20 22 12 -13 13 -41 46 -62 72 -37 46 -39 52 -48
148 -14 159 3 212 107 320 34 36 55 49 75 49 76 0 435 34 590 55 96 14 182 25
190 25 20 0 116 -130 151 -205 27 -56 28 -64 19 -126 -24 -168 -120 -279 -302
-348 -40 -16 -97 -34 -125 -41 -29 -8 -53 -18 -53 -23 0 -25 166 16 265 66
203 101 240 165 250 427 5 114 3 143 -12 184 -28 77 -54 91 -176 92 -56 1
-118 0 -137 -3z m227 -40 c14 -9 32 -32 39 -50 20 -47 17 -63 -5 -28 -11 17
-31 43 -45 59 -37 42 -34 48 11 19z"/>
<path d="M2128 1913 c-27 -30 -30 -60 -12 -98 31 -66 140 -93 186 -47 31 30
31 93 1 124 l-23 22 7 -52 c4 -35 2 -57 -7 -67 -17 -21 -83 -19 -109 3 -24 19
-28 39 -16 95 8 40 -2 48 -27 20z"/>
</g>
</svg>
