<?xml version="1.0" encoding="iso-8859-1"?>
<!-- Generator: Adobe Illustrator 22.0.1, SVG Export Plug-In . SVG Version: 6.00 Build 0)  -->
<svg xmlns="http://www.w3.org/2000/svg" xmlns:xlink="http://www.w3.org/1999/xlink" version="1.1" id="Layer_1" x="0px" y="0px" viewBox="0 0 48 48" style="enable-background:new 0 0 48 48;" xml:space="preserve" width="48px" height="48px">
<path style="fill:#1565C0;" d="M36.094,31.35c-1.695-1.5-3.754-3.225-6.66-7.35c-1.865-2.647-3.512-4-5.934-4  c-2.664,0-4.117,1.25-5.552,3.279c-2.1,2.971-2.925,3.971-5.088,5.675c-0.786,0.619-4.861,3.172-4.86,7.671  C8.001,41.875,11.753,44,15.155,44c4.469,0,5.439-1,8.345-1c3.633,0,5.57,1,8.476,1C37.789,44,39,39.625,39,36.872  C39,34.25,37.789,32.85,36.094,31.35z"/>
<path style="fill:#1565C0;" d="M11.389,24.885c3.124-0.694,3.616-3.739,3.611-5.732c-0.002-0.696-0.064-1.263-0.096-1.558  c-0.198-1.678-2.027-4.55-4.551-4.594c-0.12-0.002-0.242,0.002-0.365,0.013c-3.412,0.314-3.911,5.412-3.911,5.412  c-0.056,0.287-0.082,0.613-0.078,0.963c0.031,2.263,1.356,5.527,4.274,5.61C10.623,25.008,10.994,24.973,11.389,24.885"/>
<path style="fill:#1565C0;" d="M19.503,16C21.99,16,24,13.315,24,9.998C24,6.681,21.99,4,19.503,4C17.015,4,15,6.681,15,9.998  C15,13.315,17.015,16,19.503,16"/>
<path style="fill:#1565C0;" d="M29.522,16.964c0.221,0.031,0.436,0.041,0.645,0.033c2.696-0.103,4.416-3.276,4.781-5.723  c0.037-0.241,0.054-0.486,0.052-0.733c-0.015-2.441-1.831-5.012-3.799-5.49c-2.177-0.532-4.893,3.173-5.138,5.59  c-0.037,0.37-0.059,0.739-0.063,1.103C25.975,14.296,26.841,16.599,29.522,16.964"/>
<path style="fill:#1565C0;" d="M41.984,21.142c0-1.281-1.004-5.142-4.742-5.142C33.496,16,33,19.644,33,22.219  c0,2.41,0.187,5.752,4.578,5.781c0.087,0.001,0.176,0,0.267-0.002c4.027-0.094,4.183-4.203,4.152-6.138  C41.993,21.561,41.984,21.315,41.984,21.142"/>
<path style="fill:#FFFFFF;" d="M24,31v7.5c0,0,0,1.875,2.625,2.5H33V31h-2.625v7.5h-2.75c0,0-0.875-0.125-1-0.75V31H24z"/>
<path style="fill:#FFFFFF;" d="M20,27v4h-3c-2.125,0.375-4,2.25-3.999,4.875C13.001,35.917,13,35.958,13,36c0,2.75,1.875,4.625,4,5  h5.625V27H20z M20,38.75h-2.375c-0.75,0-2-1.125-2-2.75s1.25-2.75,2-2.75H20V38.75z"/>
</svg>
