<?xml version="1.0" encoding="UTF-8"?>
<svg width="160px" height="160px" viewBox="0 0 160 160" version="1.1" xmlns="http://www.w3.org/2000/svg" xmlns:xlink="http://www.w3.org/1999/xlink">
    <!-- Generator: Sketch 49.2 (51160) - http://www.bohemiancoding.com/sketch -->
    <title>doge_simple</title>
    <desc>Created with Sketch.</desc>
    <defs>
        <linearGradient x1="23.1219979%" y1="9.22962452%" x2="81.0087123%" y2="87.7058799%" id="linearGradient-1">
            <stop stop-color="#E9501B" offset="0%"/>
            <stop stop-color="#E21E72" offset="100%"/>
        </linearGradient>
    </defs>
    <g id="doge_simple" stroke="none" stroke-width="1" fill="none" fill-rule="evenodd">
        <g id="Group">
            <circle id="Oval" fill="url(#linearGradient-1)" cx="80" cy="80" r="80"/>
            <circle id="Oval" stroke="#FFFFFF" stroke-width="7" cx="80" cy="80" r="69"/>
            <path d="M93.25,77.7578125 C93.25,77.4713527 93.1354178,77.328125 92.90625,77.328125 L85,77.328125 C84.7708322,77.328125 84.65625,77.4713527 84.65625,77.7578125 L84.65625,90.3046875 C84.65625,90.5911473 84.7708322,90.734375 85,90.734375 L92.90625,90.734375 C93.1354178,90.734375 93.25,90.5911473 93.25,90.3046875 L93.25,77.7578125 Z M87.578125,50.6875 C87.520833,50.9166678 87.6067697,51.03125 87.8359375,51.03125 L117.140625,51.03125 C118.000004,51.03125 118.716143,51.346351 119.289062,51.9765625 C119.861982,52.549482 120.148438,53.2369752 120.148438,54.0390625 L120.148438,55.84375 C119.804686,70.2813222 119.446616,81.2239211 119.074219,88.671875 C118.701821,96.1198289 118.200524,102.035134 117.570312,106.417969 C116.940101,110.800803 116.052089,113.736972 114.90625,115.226562 C113.874995,116.773445 112.786464,117.890622 111.640625,118.578125 C110.494786,119.265628 109.033863,119.752603 107.257812,120.039062 C105.71093,120.325522 103.276058,120.46875 99.953125,120.46875 L98.234375,120.46875 C97.3749957,120.411458 96.6302115,120.096357 96,119.523438 C95.3697885,118.950518 94.9687509,118.234379 94.796875,117.375 C94.4531233,115.656241 93.966149,114.052091 93.3359375,112.5625 C93.0494777,111.932289 93.0924461,111.345055 93.4648438,110.800781 C93.8372414,110.256508 94.3385385,109.984375 94.96875,109.984375 C97.0885523,110.098959 99.5520693,110.15625 102.359375,110.15625 L102.617188,110.15625 C103.934902,110.15625 104.994788,109.64063 105.796875,108.609375 C106.885422,107.234368 107.716143,103.023473 108.289062,95.9765625 C108.861982,88.9296523 109.348956,77.2136236 109.75,60.828125 C109.75,60.5989572 109.606772,60.484375 109.320312,60.484375 L83.453125,60.484375 C83.1666652,60.484375 82.9661464,60.5989572 82.8515625,60.828125 C81.4192637,63.5781387 79.9869863,66.0416558 78.5546875,68.21875 C78.3828116,68.4479178 78.4401027,68.5625 78.7265625,68.5625 L99.609375,68.5625 C100.468754,68.5625 101.199216,68.8632782 101.800781,69.4648438 C102.402347,70.0664093 102.703125,70.7682252 102.703125,71.5703125 L102.703125,96.578125 C102.703125,97.4375043 102.402347,98.153643 101.800781,98.7265625 C101.199216,99.299482 100.468754,99.5859375 99.609375,99.5859375 L85,99.5859375 C84.7708322,99.5859375 84.65625,99.7291652 84.65625,100.015625 L84.65625,102.59375 C84.65625,103.395837 84.3554718,104.097653 83.7539062,104.699219 C83.1523407,105.300784 82.4218793,105.601562 81.5625,105.601562 L78.296875,105.601562 C77.4374957,105.601562 76.7070343,105.300784 76.1054688,104.699219 C75.5039032,104.097653 75.203125,103.395837 75.203125,102.59375 L75.203125,72.9453125 L75.1601562,72.9023438 C75.1315103,72.8736978 75.1171875,72.8880205 75.1171875,72.9453125 C74.8307277,73.2317723 74.5013039,73.3893228 74.1289062,73.4179688 C73.7565086,73.4466147 73.3984392,73.3177098 73.0546875,73.03125 C70.8775933,71.1406155 68.872405,69.5364649 67.0390625,68.21875 C66.9817705,68.21875 66.9244795,68.2330728 66.8671875,68.2617188 C66.8098955,68.2903647 66.78125,68.333333 66.78125,68.390625 C67.6979213,73.0885652 68.15625,79.0468389 68.15625,86.265625 C68.15625,101.562576 66.4661627,111.502581 63.0859375,116.085938 C61.7109306,117.976572 59.791679,119.20833 57.328125,119.78125 C55.1510308,120.296878 52.4869949,120.554688 49.3359375,120.554688 L48.5625,120.554688 C47.7031207,120.554688 46.9726593,120.253909 46.3710938,119.652344 C45.7695282,119.050778 45.3828134,118.320317 45.2109375,117.460938 C44.9817697,115.856763 44.580732,114.338549 44.0078125,112.90625 C43.7786447,112.276039 43.8359358,111.688805 44.1796875,111.144531 C44.5234392,110.600258 45.0390591,110.356771 45.7265625,110.414062 C46.8151096,110.471354 47.8749948,110.5 48.90625,110.5 C50.166673,110.5 51.3697859,110.442709 52.515625,110.328125 C53.6041721,110.213541 54.5494752,109.669276 55.3515625,108.695312 C57.0130291,106.403634 57.9296866,99.7578675 58.1015625,88.7578125 C58.1015625,88.7005205 58.0585942,88.6575522 57.9726562,88.6289062 C57.8867183,88.6002603 57.84375,88.614583 57.84375,88.671875 C55.0937362,92.281268 52.2864727,95.4609238 49.421875,98.2109375 C48.7916635,98.7265651 48.0755248,98.9414067 47.2734375,98.8554688 C46.4713502,98.7695308 45.8125026,98.4114615 45.296875,97.78125 C44.3229118,96.578119 43.2916721,95.4609427 42.203125,94.4296875 C41.6874974,93.856768 41.4440103,93.1979204 41.4726562,92.453125 C41.5013022,91.7083296 41.8020805,91.0781276 42.375,90.5625 C45.1250138,88.3854058 47.8176952,85.7500155 50.453125,82.65625 C53.0885548,79.5624845 55.294262,76.4401199 57.0703125,73.2890625 C57.1848964,73.0598947 57.2421875,72.8307303 57.2421875,72.6015625 C56.7838519,70.0234246 56.2109409,67.5885531 55.5234375,65.296875 C55.4661455,65.0677072 55.3515634,65.0390616 55.1796875,65.2109375 C53.2317611,67.04428 51.1979273,68.7916584 49.078125,70.453125 C48.3906216,70.9687526 47.6315146,71.1692714 46.8007812,71.0546875 C45.9700479,70.9401036 45.2395865,70.5677115 44.609375,69.9375 C43.7499957,68.9635368 42.8046927,67.9895882 41.7734375,67.015625 C41.2578099,66.5572894 41,65.9843784 41,65.296875 C41,64.4374957 41.3437466,63.7786481 42.03125,63.3203125 C44.8385557,61.2005102 47.6744648,58.6510566 50.5390625,55.671875 C50.7682303,55.4427072 50.7968759,55.2135428 50.625,54.984375 C48.6770736,52.0051934 46.1562655,49.1119932 43.0625,46.3046875 C42.4895805,45.7890599 42.203125,45.1445351 42.203125,44.3710938 C42.203125,43.5976524 42.518226,42.9531276 43.1484375,42.4375 L45.7265625,40.4609375 C46.4140659,39.888018 47.2018185,39.6015625 48.0898438,39.6015625 C48.977869,39.6015625 49.7656216,39.9166635 50.453125,40.546875 C52.8020951,42.6093853 54.9791566,44.8723835 56.984375,47.3359375 C57.1562509,47.5078134 57.3281241,47.5078134 57.5,47.3359375 C58.8177149,45.559887 60.078119,43.726572 61.28125,41.8359375 C61.7395856,41.1484341 62.3697877,40.6757825 63.171875,40.4179688 C63.9739623,40.160155 64.7473921,40.2317688 65.4921875,40.6328125 L69.53125,42.6953125 C70.2760454,43.0963562 70.7486969,43.6835899 70.9492188,44.4570312 C71.1497406,45.2304726 71.0494812,45.9609341 70.6484375,46.6484375 C68.4140513,50.0859547 65.9791798,53.3801926 63.34375,56.53125 C63.1718741,56.7604178 63.1432286,56.9895822 63.2578125,57.21875 C64.5182355,60.0833477 65.5494752,63.2057123 66.3515625,66.5859375 C66.3515625,66.7005214 66.3945308,66.7578125 66.4804688,66.7578125 C66.5664067,66.7578125 66.6380205,66.729167 66.6953125,66.671875 C72.4245078,60.1978843 76.8932131,51.747448 80.1015625,41.3203125 C80.3307303,40.5182252 80.8177046,39.8880231 81.5625,39.4296875 C82.0781276,39.1432277 82.622393,39 83.1953125,39 C83.4244803,39 83.6536447,39.0286455 83.8828125,39.0859375 L88.0078125,40.03125 C88.8098998,40.2031259 89.4114563,40.6471318 89.8125,41.3632812 C90.2135437,42.0794307 90.2994803,42.8385377 90.0703125,43.640625 C89.3255171,45.9895951 88.4947963,48.3385299 87.578125,50.6875 Z" id="狗" fill="#FFFFFF"/>
        </g>
    </g>
</svg>