<?xml version="1.0" encoding="iso-8859-1"?>
<!-- Generator: Adobe Illustrator 19.0.0, SVG Export Plug-In . SVG Version: 6.00 Build 0)  -->
<svg version="1.1" id="Capa_1" xmlns="http://www.w3.org/2000/svg" xmlns:xlink="http://www.w3.org/1999/xlink" x="0px" y="0px"
	 viewBox="0 0 512 512" style="enable-background:new 0 0 512 512;" xml:space="preserve">
<path style="fill:#C8F5FF;" d="M368.238,327.978h18.353c35.124,0,63.599-28.474,63.599-63.599s-28.474-63.599-63.599-63.599
	c-16.415,0-31.377,6.222-42.659,16.432c1.141-6.989,1.744-14.158,1.744-21.47c0-73.031-59.203-132.234-132.234-132.234
	c-69.594,0-126.632,53.763-131.845,122.022c-12.386-0.079-24.955,3.06-36.416,9.78c-33.933,19.897-45.311,63.535-25.414,97.468
	c13.757,23.462,38.863,36.132,64.264,35.146v0.052h34.225"/>
<path style="fill:#F5C86E;" d="M345.675,195.744c0,7.311-0.603,14.481-1.744,21.47c11.282-10.211,26.244-16.432,42.659-16.432
	c16.948,0,32.334,6.642,43.734,17.449c6.744-11.413,10.628-24.718,10.628-38.935c0-42.343-34.326-76.668-76.668-76.668
	c-16.654,0-32.055,5.327-44.627,14.346C336.002,138.976,345.675,166.229,345.675,195.744z"/>
<path d="M364.285,78.588c5.522,0,10-4.477,10-10V32.863c0-5.523-4.478-10-10-10s-10,4.477-10,10v35.725
	C354.285,74.111,358.763,78.588,364.285,78.588z"/>
<path d="M442.566,111.013c2.56,0,5.118-0.977,7.071-2.929l40.942-40.942c3.905-3.905,3.905-10.237,0-14.143
	c-3.906-3.904-10.236-3.904-14.143,0L435.494,93.94c-3.905,3.905-3.905,10.237,0,14.143
	C437.448,110.037,440.007,111.013,442.566,111.013z"/>
<path d="M186.337,335.03c-3.904-3.905-10.234-3.905-14.143,0l-74.058,74.057c-3.905,3.905-3.905,10.237,0,14.143
	c1.953,1.953,4.512,2.929,7.071,2.929s5.119-0.977,7.071-2.929l74.058-74.057C190.242,345.268,190.242,338.936,186.337,335.03z"/>
<path d="M319.057,339.975l-47.493,47.494c-3.905,3.905-3.905,10.237,0,14.142c1.953,1.953,4.512,2.929,7.071,2.929
	c2.559,0,5.118-0.977,7.071-2.929l47.493-47.494c3.905-3.905,3.905-10.237,0-14.142
	C329.294,336.068,322.964,336.068,319.057,339.975z"/>
<path d="M233.075,425.957l-15.298,15.298c-3.905,3.905-3.905,10.237,0,14.142c1.953,1.953,4.512,2.929,7.071,2.929
	s5.118-0.977,7.071-2.929l15.298-15.298c3.905-3.905,3.905-10.237,0-14.142C243.311,422.051,236.981,422.051,233.075,425.957z"/>
<path d="M245.383,335.635l-65.634,65.633c-3.905,3.905-3.905,10.237,0,14.142c1.953,1.953,4.512,2.929,7.071,2.929
	s5.118-0.977,7.071-2.929l65.634-65.633c3.905-3.905,3.905-10.237,0-14.143C255.622,331.731,249.291,331.73,245.383,335.635z"/>
<path d="M142.113,438.904l-33.161,33.161c-3.905,3.905-3.905,10.237,0,14.143c1.953,1.953,4.512,2.929,7.071,2.929
	c2.559,0,5.118-0.976,7.071-2.929l33.161-33.161c3.905-3.905,3.905-10.237,0-14.143C152.35,434.999,146.019,434.999,142.113,438.904
	z"/>
<path d="M502,169.294h-27.009c-5.522,0-10,4.477-10,10c0,5.523,4.478,10,10,10H502c5.522,0,10-4.477,10-10
	C512,173.771,507.523,169.294,502,169.294z"/>
<path d="M143.953,186.293c2.754-36.056,33.276-64.3,69.488-64.3c5.522,0,10-4.477,10-10s-4.478-10-10-10
	c-22.751,0-44.447,8.531-61.093,24.023c-16.557,15.408-26.621,36.275-28.338,58.755c-0.421,5.507,3.702,10.312,9.209,10.733
	c0.26,0.02,0.517,0.029,0.772,0.029C139.17,195.532,143.553,191.541,143.953,186.293z"/>
<path d="M261.056,126.905c1.86-1.87,2.931-4.45,2.931-7.08c0-2.63-1.07-5.21-2.931-7.07c-1.859-1.86-4.439-2.93-7.069-2.93
	c-2.63,0-5.21,1.07-7.07,2.93c-1.86,1.86-2.93,4.44-2.93,7.07c0,2.64,1.069,5.21,2.93,7.08c1.86,1.86,4.44,2.92,7.07,2.92
	C256.617,129.825,259.196,128.766,261.056,126.905z"/>
<path d="M450.953,179.294c0-47.789-38.879-86.669-86.669-86.669c-14.975,0-29.525,3.829-42.46,11.122
	c-26.11-30.714-65.006-50.237-108.382-50.237c-36.078,0-70.483,13.528-96.879,38.093c-24.086,22.417-39.506,52.111-43.992,84.382
	c-11.404,1.218-22.478,4.853-32.448,10.699C1.487,209.34-11.514,259.203,11.14,297.838c14.641,24.97,41.282,40.143,70.092,40.143
	c0.698,0,1.396-0.009,2.098-0.027c0.231,0.016,0.465,0.024,0.701,0.024h34.225c5.522,0,10-4.477,10-10s-4.478-10-10-10H85.049
	c-0.463-0.047-0.933-0.062-1.404-0.044c-22.63,0.883-43.808-10.698-55.251-30.212c-8.271-14.107-10.555-30.591-6.429-46.416
	c4.126-15.824,14.167-29.095,28.275-37.367c9.388-5.505,20.065-8.408,30.906-8.408c0.149,0,0.302,0.003,0.452,0.001
	c5.223,0,9.571-4.023,9.97-9.238c4.83-63.243,58.363-112.782,121.874-112.782c67.4,0,122.234,54.834,122.234,122.234
	c0,6.619-0.543,13.3-1.614,19.858c-0.686,4.194,1.355,8.363,5.087,10.395c3.73,2.031,8.34,1.484,11.492-1.368
	c9.867-8.929,22.636-13.847,35.95-13.847c29.554,0,53.598,24.044,53.598,53.599c0,29.555-24.044,53.598-53.598,53.598h-18.354
	c-5.522,0-10,4.477-10,10s4.478,10,10,10h18.354c40.582,0,73.598-33.016,73.598-73.598c0-18.226-6.673-34.912-17.686-47.779
	C448.037,205.003,450.953,192.2,450.953,179.294z M355.665,197.584c0.008-0.614,0.012-1.227,0.012-1.84
	c0-27.815-8.033-53.786-21.891-75.729c9.395-4.851,19.805-7.389,30.499-7.389c36.761,0,66.668,29.907,66.668,66.668
	c0,8.009-1.462,15.964-4.258,23.421c-11.546-7.535-25.317-11.934-40.104-11.934C375.8,190.781,365.269,193.134,355.665,197.584z"/>
<g>
</g>
<g>
</g>
<g>
</g>
<g>
</g>
<g>
</g>
<g>
</g>
<g>
</g>
<g>
</g>
<g>
</g>
<g>
</g>
<g>
</g>
<g>
</g>
<g>
</g>
<g>
</g>
<g>
</g>
</svg>
